# xmcd CD database file
#
# Track frame offsets:
#	150
#	13759
#	25010
#	38989
#	53898
#	69432
#	86572
#	102696
#	116408
#	133576
#	152842
#
# Disc length: 2262 seconds
#
# Revision: 0
# Processed by: cddbd v1.5.2PL0 Copyright (c) Steve Scherf et al.
# Submitted via: CDex 1.51
#
DISCID=8e08d40b
DTITLE=Jeremy Esteb - Jeremy Esteb
DYEAR=2006
DGENRE=Country
TTITLE0=Get Up, Get Out
TTITLE1=Live Once
TTITLE2=Just For Today
TTITLE3=Another Year
TTITLE4=Leave Her Here (The Mushroom Song)
TTITLE5=Too Late
TTITLE6=Try Me
TTITLE7=Woke Up Missin' You
TTITLE8=Ya Never Know
TTITLE9=Find My Way To You
TTITLE10=Memory Lane
EXTD=YEAR: 2006
EXTT0=
EXTT1=
EXTT2=
EXTT3=
EXTT4=
EXTT5=
EXTT6=
EXTT7=
EXTT8=
EXTT9=
EXTT10=
PLAYORDER=
